<mxfile host="app.diagrams.net" modified="2021-01-28T07:01:07.180Z" agent="5.0 (Windows NT 10.0; Win64; x64) AppleWebKit/537.36 (KHTML, like Gecko) Chrome/88.0.4324.96 Safari/537.36 Edg/88.0.705.50" etag="8DZ8NMBWg0WvjhPgX1Ug" version="14.2.7" type="github">
  <diagram id="wFE0QG_FPsp0jaGvCLVb" name="Page-1">
    <mxGraphModel dx="1422" dy="746" grid="1" gridSize="10" guides="1" tooltips="1" connect="1" arrows="1" fold="1" page="1" pageScale="1" pageWidth="850" pageHeight="1100" math="0" shadow="0">
      <root>
        <mxCell id="0" />
        <mxCell id="1" parent="0" />
        <mxCell id="YdygAMEtoXRijBPzQDF1-1" value="" style="rounded=0;whiteSpace=wrap;html=1;" vertex="1" parent="1">
          <mxGeometry x="30" y="50" width="800" height="460" as="geometry" />
        </mxCell>
        <mxCell id="YdygAMEtoXRijBPzQDF1-2" value="&lt;font style=&quot;font-size: 30px&quot;&gt;客户端程序&lt;/font&gt;" style="text;html=1;align=center;verticalAlign=middle;resizable=0;points=[];autosize=1;" vertex="1" parent="1">
          <mxGeometry x="335" y="55" width="170" height="30" as="geometry" />
        </mxCell>
        <mxCell id="YdygAMEtoXRijBPzQDF1-4" value="&lt;font style=&quot;font-size: 19px&quot;&gt;互联课堂服务（Nodej）&lt;/font&gt;" style="rounded=1;whiteSpace=wrap;html=1;fillColor=#fff2cc;strokeColor=#d6b656;" vertex="1" parent="1">
          <mxGeometry x="60" y="350" width="740" height="60" as="geometry" />
        </mxCell>
        <mxCell id="YdygAMEtoXRijBPzQDF1-5" value="&lt;font style=&quot;font-size: 19px&quot;&gt;后台服务端交互&lt;/font&gt;" style="rounded=1;whiteSpace=wrap;html=1;fillColor=#dae8fc;strokeColor=#6c8ebf;" vertex="1" parent="1">
          <mxGeometry x="60" y="430" width="740" height="60" as="geometry" />
        </mxCell>
        <mxCell id="YdygAMEtoXRijBPzQDF1-10" value="&lt;font style=&quot;font-size: 20px&quot;&gt;用户界面&lt;/font&gt;" style="rounded=1;whiteSpace=wrap;html=1;fillColor=#ffe6cc;strokeColor=#d79b00;" vertex="1" parent="1">
          <mxGeometry x="60" y="90" width="740" height="240" as="geometry" />
        </mxCell>
        <mxCell id="YdygAMEtoXRijBPzQDF1-6" value="&lt;font style=&quot;font-size: 20px&quot;&gt;CEF 浏览器内核&lt;/font&gt;" style="rounded=1;whiteSpace=wrap;html=1;fillColor=#d5e8d4;strokeColor=#82b366;" vertex="1" parent="1">
          <mxGeometry x="70" y="100" width="270" height="225" as="geometry" />
        </mxCell>
        <mxCell id="YdygAMEtoXRijBPzQDF1-7" value="服务端Web页面" style="ellipse;whiteSpace=wrap;html=1;fillColor=#60a917;strokeColor=#2D7600;fontColor=#ffffff;" vertex="1" parent="1">
          <mxGeometry x="80" y="110" width="120" height="80" as="geometry" />
        </mxCell>
        <mxCell id="YdygAMEtoXRijBPzQDF1-8" value="本地HTML静态页面" style="ellipse;whiteSpace=wrap;html=1;fillColor=#60a917;strokeColor=#2D7600;fontColor=#ffffff;" vertex="1" parent="1">
          <mxGeometry x="90" y="240" width="230" height="80" as="geometry" />
        </mxCell>
        <mxCell id="YdygAMEtoXRijBPzQDF1-9" value="互联课堂服务Web页面" style="ellipse;whiteSpace=wrap;html=1;fillColor=#60a917;strokeColor=#2D7600;fontColor=#ffffff;" vertex="1" parent="1">
          <mxGeometry x="205" y="110" width="130" height="80" as="geometry" />
        </mxCell>
        <mxCell id="YdygAMEtoXRijBPzQDF1-13" value="&lt;font style=&quot;font-size: 16px&quot;&gt;WinForm&lt;/font&gt;" style="rounded=1;whiteSpace=wrap;html=1;fillColor=#d5e8d4;strokeColor=#82b366;" vertex="1" parent="1">
          <mxGeometry x="490" y="100" width="140" height="220" as="geometry" />
        </mxCell>
        <mxCell id="YdygAMEtoXRijBPzQDF1-14" value="&lt;font style=&quot;font-size: 16px&quot;&gt;WPF&lt;/font&gt;" style="rounded=1;whiteSpace=wrap;html=1;fillColor=#d5e8d4;strokeColor=#82b366;" vertex="1" parent="1">
          <mxGeometry x="640" y="100" width="140" height="220" as="geometry" />
        </mxCell>
      </root>
    </mxGraphModel>
  </diagram>
</mxfile>
